<svg xmlns="http://www.w3.org/2000/svg" width="400" height="250" viewBox="0 0 400 250">
  <defs>
    <linearGradient id="greenhouseGrad" x1="0%" y1="0%" x2="100%" y2="100%">
      <stop offset="0%" style="stop-color:#00d4ff;stop-opacity:1" />
      <stop offset="100%" style="stop-color:#00ff88;stop-opacity:1" />
    </linearGradient>
  </defs>
  <!-- Background -->
  <rect width="400" height="250" fill="#0a0e27"/>
  <!-- Greenhouse structure -->
  <path d="M 120 180 L 120 110 L 200 60 L 280 110 L 280 180 Z" fill="url(#greenhouseGrad)" opacity="0.3" stroke="#00d4ff" stroke-width="2"/>
  <!-- Roof panels -->
  <line x1="200" y1="60" x2="120" y2="110" stroke="#00d4ff" stroke-width="2" opacity="0.5"/>
  <line x1="200" y1="60" x2="280" y2="110" stroke="#00d4ff" stroke-width="2" opacity="0.5"/>
  <!-- Plants -->
  <ellipse cx="150" cy="165" rx="15" ry="25" fill="#00ff88" opacity="0.7"/>
  <ellipse cx="180" cy="170" rx="12" ry="20" fill="#00ff88" opacity="0.8"/>
  <ellipse cx="210" cy="165" rx="18" ry="28" fill="#00ff88" opacity="0.7"/>
  <ellipse cx="245" cy="170" rx="14" ry="22" fill="#00ff88" opacity="0.8"/>
  <!-- Soil/pots -->
  <rect x="130" y="170" width="140" height="10" fill="#ffbe0b" opacity="0.5" rx="2"/>
  <!-- Water droplets -->
  <circle cx="165" cy="130" r="3" fill="#00d4ff" opacity="0.6"/>
  <circle cx="200" cy="125" r="3" fill="#00d4ff" opacity="0.6"/>
  <circle cx="235" cy="130" r="3" fill="#00d4ff" opacity="0.6"/>
  <!-- Sensors -->
  <rect x="140" y="155" width="10" height="15" fill="#ff006e" opacity="0.7" rx="2"/>
  <rect x="250" y="155" width="10" height="15" fill="#ff006e" opacity="0.7" rx="2"/>
  <!-- Control unit -->
  <rect x="285" y="140" width="40" height="30" fill="#00d4ff" opacity="0.6" rx="3"/>
  <circle cx="295" cy="150" r="3" fill="#00ff88" opacity="0.9"/>
  <circle cx="295" cy="160" r="3" fill="#ffbe0b" opacity="0.9"/>
</svg>
