<svg xmlns="http://www.w3.org/2000/svg" width="400" height="250" viewBox="0 0 400 250" role="img" aria-label="Smart Home System project illustration">
  <title>Smart Home System Project</title>
  <defs>
    <linearGradient id="smartHomeGrad" x1="0%" y1="0%" x2="100%" y2="100%">
      <stop offset="0%" style="stop-color:#ff006e;stop-opacity:1" />
      <stop offset="100%" style="stop-color:#ffbe0b;stop-opacity:1" />
    </linearGradient>
  </defs>
  <!-- Background -->
  <rect width="400" height="250" fill="#0a0e27"/>
  <!-- House outline -->
  <path d="M 120 180 L 120 100 L 200 50 L 280 100 L 280 180 Z" fill="url(#smartHomeGrad)" opacity="0.6"/>
  <!-- Roof -->
  <path d="M 100 100 L 200 40 L 300 100 L 280 100 L 200 55 L 120 100 Z" fill="url(#smartHomeGrad)" opacity="0.8"/>
  <!-- Windows with smart lights -->
  <rect x="140" y="110" width="35" height="35" fill="#ffbe0b" opacity="0.7" rx="3"/>
  <rect x="185" y="110" width="35" height="35" fill="#00d4ff" opacity="0.7" rx="3"/>
  <rect x="230" y="110" width="35" height="35" fill="#ffbe0b" opacity="0.7" rx="3"/>
  <!-- Door -->
  <rect x="182" y="145" width="36" height="35" fill="#00d4ff" opacity="0.5" rx="3"/>
  <!-- IoT nodes/sensors -->
  <circle cx="150" cy="90" r="5" fill="#00d4ff" opacity="0.9"/>
  <circle cx="250" cy="90" r="5" fill="#00d4ff" opacity="0.9"/>
  <circle cx="200" cy="80" r="5" fill="#ff006e" opacity="0.9"/>
  <!-- Signal waves -->
  <circle cx="200" cy="80" r="10" fill="none" stroke="#ff006e" stroke-width="1" opacity="0.5"/>
  <circle cx="200" cy="80" r="15" fill="none" stroke="#ff006e" stroke-width="1" opacity="0.3"/>
</svg>
